/* XPM */
static char * left_ptr_xpm[] = {
"11 18 3 1 0 0",
" 	c #eae5c1",
".	c None",
"X	c #36352e",
" ..........",
"  .........",
" X ........",
" XX .......",
" XXX ......",
" XXXX .....",
" XXXXX ....",
" XXXXXX ...",
" XXXXXXX ..",
" XXXXXXXX .",
" XXXXX     ",
" XX XXX ...",
" X  XXX ...",
"  .. XXX ..",
" ... XXX ..",
"..... XXX .",
"..... XXX .",
"......   .."};
