/* XPM */
static char * bottom_right_corner_xpm[] = {
"14 14 3 1",
" 	c None",
".	c #B8A882",
"X	c #28231D",
"           ...",
"           .X.",
"           .X.",
"           .X.",
"           .X.",
"           .X.",
"           .X.",
"           .X.",
"           .X.",
"           .X.",
"           .X.",
"............X.",
".XXXXXXXXXXXX.",
".............."};
