/* XPM */
static char * fleur_xpm[] = {
"21 21 3 1",
" 	c None",
".	c #B8A882",
"X	c #28231D",
"          .          ",
"         .X.         ",
"        .XXX.        ",
"       .XXXXX.       ",
"        ..X..        ",
"         .X.         ",
"         .X.         ",
"   .     .X.     .   ",
"  .X.    .X.    .X.  ",
" .XX......X......XX. ",
".XXXXXXXXXXXXXXXXXXX.",
" .XX......X......XX. ",
"  .X.    .X.    .X.  ",
"   .     .X.     .   ",
"         .X.         ",
"         .X.         ",
"        ..X..        ",
"       .XXXXX.       ",
"        .XXX.        ",
"         .X.         ",
"          .          "};
