/* XPM */
static char * hand2_xpm[] = {
"19 17 3 1 17 1",
" 	c None",
".	c #100d02",
"X	c #6c4a1e",
"                   ",
"   ............... ",
"    ....XXXXXXXXX. ",
"     ....XXXXXXXX. ",
" .........XXXXXXX. ",
" .........XXXXXXX. ",
" ..XXXXXXXXXXXXXX. ",
" ..XXXXXXXX..XXXX. ",
" ..XXXXXXX....XXX. ",
" ..XXXXXX.  ...XX. ",
" ..XXXXX.    ...X. ",
" ..XXXX.      .... ",
" ..XXX.        ... ",
" ..XX.             ",
" ..X.              ",
" ...               ",
" ..                "};
