/* XPM */
static char * h_double_arrow_xpm[] = {
"21 21 3 1 10 10",
" 	c None",
".	c #100d02",
"X	c #6c4a1e",
"                     ",
"                     ",
"                     ",
"                     ",
"                     ",
"     .         .     ",
"    ..         ..    ",
"   .X.         .X.   ",
"  .XX.         .XX.  ",
" .XXX...........XXX. ",
".XXXXXXXXXXXXXXXXXXX.",
" .XXX...........XXX. ",
"  .XX.         .XX.  ",
"   .X.         .X.   ",
"    ..         ..    ",
"     .         .     ",
"                     ",
"                     ",
"                     ",
"                     ",
"                     "};
