/* XPM */
static char * watch5_xpm[] = {
"24 24 3 1 11 13",
" 	c None",
".	c #100d02",
"X	c #6c4a1e",
"                        ",
"                        ",
"       .... ....        ",
"       .XX. .XX.        ",
"   .....XX...XX.....    ",
"   .XXXXXXXXXXXXXXX.    ",
"   .XXXXXXXXXXXXXXX.    ",
"   .....XX...XX.....    ",
"       .XX. .XX.        ",
"       .XX. .XX.        ",
"   .....XX...XX.....    ",
"   .XXXXXXXXXXXXXXX.    ",
"   .XXXXXXXXXXXXXXX.    ",
"   .....XX...XX.....    ",
"       .XX. .XX.        ",
"       .... ....        ",
"                        ",
"                        ",
"   ........... .....    ",
"   .XXXXXXXXX. .XXX.    ",
"   .XXXXXXXXX. .XXX.    ",
"   ........... .....    ",
"                        ",
"                        "};
