/* XPM */
static char * left_ptr_xpm[] = {
"24 22 3 1 4 1",
" 	c None",
".	c #000000",
"X	c #ffffff",
"                        ",
"    .                   ",
"    ..                  ",
"    ...                 ",
"    .X..                ",
"    .XX..               ",
"    .XXX..              ",
"    .XXXX..             ",
"    .XXXXX..            ",
"    .XXXXXX..           ",
"    .XXXXXXX..          ",
"    .XXXXXXXX..         ",
"    .XXXXXXXXX..        ",
"    .XXXXXXXXXX..       ",
"    .XXXXXXXXXXX..      ",
"    .XXX...........     ",
"    .XX.............    ",
"    .X..                ",
"    ...                 ",
"    ..                  ",
"    .                   ",
"                        "};
