/* XPM */
static char * top_left_arrow_xpm[] = {
"19 17 3 1 1 1",
" 	c None",
".	c #91875e",
"X	c #100d02",
"                   ",
" ...............   ",
" .XXXXXXXXX....    ",
" .XXXXXXXX....     ",
" .XXXXXXX......... ",
" .XXXXXXX......... ",
" .XXXXXXXXXXXXXX.. ",
" .XXXX..XXXXXXXX.. ",
" .XXX....XXXXXXX.. ",
" .XX...  .XXXXXX.. ",
" .X...    .XXXXX.. ",
" ....      .XXXX.. ",
" ...        .XXX.. ",
"             .XX.. ",
"              .X.. ",
"               ... ",
"                .. "};
