/* XPM */
static char * watch10_xpm[] = {
"24 24 3 1 22 0",
" 	c #100d02",
".	c #91875e",
"X	c None",
" .XX.  .XXXXXX.  .XXXX. ",
" ....  ...XXXX.  .XX... ",
"         .XXXX.  .XX.   ",
"         .XXXX.  .XX.   ",
" ....  ...XXXX.  .XX... ",
" .XX.  .XXXXXX.  .XXXX. ",
" .XX.  .XXXXXX.  .XXXX. ",
" .XX.  .XXXXXX.  .XXXX. ",
"..XX....XXXXXX....XXXX..",
"XXXXXXXXXXXXXXXXXXXXXXXX",
"XXXXXXXXXXXXXXXXXXXXXXXX",
"XXXXXXXXXXXXXXXXXXXXXXXX",
"XXXXXXXXXXXXXXXXXXXXXXXX",
"XXXXXXXXXXXXXXXXXXXXXXXX",
"XXXXXXXXXXXXXXXXXXXXXXXX",
"XXXXXXXXXXXXXXXXXXXXXXXX",
"..XX....XXXXXX....XXXX..",
" .XX.  .XXXXXX.  .XXXX. ",
" .XX.  .XXXXXX.  .XXXX. ",
" .XX.  .XXXXXX.  .XXXX. ",
" ....  ...XXXX....XX... ",
"         .XXXXXXXXXX.   ",
"         .XXXX....XX.   ",
" ....  ...XXXX.  .XX... "};
