/* XPM */
static char * watch4_xpm[] = {
"24 24 3 1 13 12",
" 	c None",
".	c #eae5ca",
"X	c #737260",
"                        ",
"                        ",
"                        ",
"                        ",
"    ....  ....    ....  ",
"    .XX.  .XX.    .XX.  ",
"    .XX.  .XX.    .XX.  ",
"    .XX.  .XX.    .XX.  ",
"  ...XX....XX...  ....  ",
"  .XXXXXXXXXXXX.        ",
"  .XXXXXXXXXXXX.  ....  ",
"  ...XX....XX...  .XX.  ",
"    .XX.  .XX.    .XX.  ",
"  ...XX....XX...  .XX.  ",
"  .XXXXXXXXXXXX.  .XX.  ",
"  .XXXXXXXXXXXX.  .XX.  ",
"  ...XX....XX...  .XX.  ",
"    .XX.  .XX.    .XX.  ",
"    .XX.  .XX.    .XX.  ",
"    .XX.  .XX.    .XX.  ",
"    ....  ....    ....  ",
"                        ",
"                        ",
"                        "};
