/* XPM */
static char * bottom_side_xpm[] = {
"21 8 3 1",
" 	c #000000",
".	c None",
"X	c #ffffff",
"   ...............   ",
" X ............... X ",
" X ............... X ",
" X ............... X ",
" X ............... X ",
" X                 X ",
" XXXXXXXXXXXXXXXXXXX ",
"                     "};
