/* XPM */
static char * right_side_xpm[] = {
"8 21 3 1",
" 	c #000000",
".	c #ffffff",
"X	c None",
"        ",
" ...... ",
"      . ",
"XXXXX . ",
"XXXXX . ",
"XXXXX . ",
"XXXXX . ",
"XXXXX . ",
"XXXXX . ",
"XXXXX . ",
"XXXXX . ",
"XXXXX . ",
"XXXXX . ",
"XXXXX . ",
"XXXXX . ",
"XXXXX . ",
"XXXXX . ",
"XXXXX . ",
"      . ",
" ...... ",
"        "};
