/* XPM */
static char * top_left_corner_xpm[] = {
"14 14 3 1",
" 	c #000000",
".	c #ffffff",
"X	c None",
"              ",
" ............ ",
" .            ",
" . XXXXXXXXXXX",
" . XXXXXXXXXXX",
" . XXXXXXXXXXX",
" . XXXXXXXXXXX",
" . XXXXXXXXXXX",
" . XXXXXXXXXXX",
" . XXXXXXXXXXX",
" . XXXXXXXXXXX",
" . XXXXXXXXXXX",
" . XXXXXXXXXXX",
"   XXXXXXXXXXX"};
