/* XPM */
static char * watch6_xpm[] = {
"24 24 3 1 10 11",
" 	c None",
".	c #000000",
"X	c #ffffff",
"                        ",
"                        ",
"                        ",
"  ....    ....  ....    ",
"  .XX.    .XX.  .XX.    ",
"  .XX.    .XX.  .XX.    ",
"  .XX.    .XX.  .XX.    ",
"  .XX.  ...XX....XX...  ",
"  .XX.  .XXXXXXXXXXXX.  ",
"  .XX.  .XXXXXXXXXXXX.  ",
"  .XX.  ...XX....XX...  ",
"  .XX.    .XX.  .XX.    ",
"  .XX.  ...XX....XX...  ",
"  ....  .XXXXXXXXXXXX.  ",
"        .XXXXXXXXXXXX.  ",
"  ....  ...XX....XX...  ",
"  .XX.    .XX.  .XX.    ",
"  .XX.    .XX.  .XX.    ",
"  .XX.    .XX.  .XX.    ",
"  ....    ....  ....    ",
"                        ",
"                        ",
"                        ",
"                        "};
