/* XPM */
static char * watch8_xpm[] = {
"24 24 3 1 1 23",
" 	c #ffffff",
".	c #000000",
"X	c None",
" ...XX.  .XXXX...  .... ",
"   .XX....XXXX.         ",
"   .XXXXXXXXXX.         ",
" ...XX....XXXX...  .... ",
" .XXXX.  .XXXXXX.  .XX. ",
" .XXXX.  .XXXXXX.  .XX. ",
" .XXXX.  .XXXXXX.  .XX. ",
"..XXXX....XXXXXX....XX..",
"XXXXXXXXXXXXXXXXXXXXXXXX",
"XXXXXXXXXXXXXXXXXXXXXXXX",
"XXXXXXXXXXXXXXXXXXXXXXXX",
"XXXXXXXXXXXXXXXXXXXXXXXX",
"XXXXXXXXXXXXXXXXXXXXXXXX",
"XXXXXXXXXXXXXXXXXXXXXXXX",
"XXXXXXXXXXXXXXXXXXXXXXXX",
"..XXXX....XXXXXX....XX..",
" .XXXX.  .XXXXXX.  .XX. ",
" .XXXX.  .XXXXXX.  .XX. ",
" .XXXX.  .XXXXXX.  .XX. ",
" ...XX.  .XXXX...  .... ",
"   .XX.  .XXXX.         ",
"   .XX.  .XXXX.         ",
" ...XX.  .XXXX...  .... ",
" .XXXX.  .XXXXXX.  .XX. "};
