/* XPM */
static char * left_side_xpm[] = {
"8 21 3 1",
" 	c #eeeeec",
".	c #2e3436",
"X	c None",
"        ",
" ...... ",
" .      ",
" . XXXXX",
" . XXXXX",
" . XXXXX",
" . XXXXX",
" . XXXXX",
" . XXXXX",
" . XXXXX",
" . XXXXX",
" . XXXXX",
" . XXXXX",
" . XXXXX",
" . XXXXX",
" . XXXXX",
" . XXXXX",
" . XXXXX",
" .      ",
" ...... ",
"        "};
