/* XPM */
static char * watch9_xpm[] = {
"24 24 3 1 0 1",
" 	c #2e3436",
".	c #eeeeec",
"X	c None",
"        .XXXXXXX.       ",
"..  .....XXXXXXX.....  .",
"X.  .XXXXXXXXXXXXXXX.  .",
"X....XXXXXXXXXXXXXXX....",
"XXXXXXXXXXXXXXXXXXXXXXXX",
"XXXXXXXXXXXXXXXXXXXXXXXX",
".........XXXXXXX.....X..",
"        .XXXXXXX.   .X. ",
"        .XXXXXXX.   .X. ",
".........XXXXXXX.....X..",
"XXXXXXXXXXXXXXXXXXXXXXXX",
"XXXXXXXXXXXXXXXXXXXXXXXX",
"XXXXXXXXXXXXXXXXXXXXXXXX",
"XXXXXXXXXXXXXXXXXXXXXXXX",
"X....XXXXXXXXXXXXXXX....",
"X.  .XXXXXXXXXXXXXXX.  .",
"..  .....XXXXXXX.....  .",
"        .XXXXXXX.       ",
"        .XXXXXXX.       ",
"..  .....XXXXXXX.....  .",
"X.  .XXXXXXXXXXXXXXX.  .",
"X.  .XXXXXXXXXXXXXXX.  .",
"..  .....XXXXXXX.....  .",
"        .XXXXXXX.       "};
