/* XPM */
static char * sb_left_arrow_xpm[] = {
"16 9 3 1 9 4",
" 	c None",
".	c #100d02",
"X	c #26524d",
"    .           ",
"   ..           ",
"  .X.           ",
" .XX............",
".XXXXXXXXXXXXXX.",
" .XX............",
"  .X.           ",
"   ..           ",
"    .           "};
