/* XPM */
static char * top_right_corner_xpm[] = {
"14 14 3 1",
" 	c #100d02",
".	c #26524d",
"X	c None",
"              ",
" ............ ",
"            . ",
"XXXXXXXXXXX . ",
"XXXXXXXXXXX . ",
"XXXXXXXXXXX . ",
"XXXXXXXXXXX . ",
"XXXXXXXXXXX . ",
"XXXXXXXXXXX . ",
"XXXXXXXXXXX . ",
"XXXXXXXXXXX . ",
"XXXXXXXXXXX . ",
"XXXXXXXXXXX . ",
"XXXXXXXXXXX   "};
