/* XPM */
static char * bottom_left_corner_xpm[] = {
"14 14 3 1",
" 	c #dcdab3",
".	c None",
"X	c #606359",
"   ...........",
" X ...........",
" X ...........",
" X ...........",
" X ...........",
" X ...........",
" X ...........",
" X ...........",
" X ...........",
" X ...........",
" X ...........",
" X            ",
" XXXXXXXXXXXX ",
"              "};
