/* XPM */
static char * top_side_xpm[] = {
"21 8 3 1",
" 	c #dcdab3",
".	c #606359",
"X	c None",
"                     ",
" ................... ",
" .                 . ",
" . XXXXXXXXXXXXXXX . ",
" . XXXXXXXXXXXXXXX . ",
" . XXXXXXXXXXXXXXX . ",
" . XXXXXXXXXXXXXXX . ",
"   XXXXXXXXXXXXXXX   "};
