/* XPM */
static char * watch_xpm[] = {
"20 19 3 1 11 9",
" 	c None",
".	c #dcdab3",
"X	c #606359",
"                    ",
"  ....  ....    ....",
"  .XX.  .XX.    .XX.",
"  .XX.  .XX.    .XX.",
"  .XX.  .XX.    .XX.",
"...XX....XX...  .XX.",
".XXXXXXXXXXXX.  .XX.",
".XXXXXXXXXXXX.  .XX.",
"...XX....XX...  .XX.",
"  .XX.  .XX.    .XX.",
"...XX....XX...  .XX.",
".XXXXXXXXXXXX.  ....",
".XXXXXXXXXXXX.      ",
"...XX....XX...  ....",
"  .XX.  .XX.    .XX.",
"  .XX.  .XX.    .XX.",
"  .XX.  .XX.    .XX.",
"  ....  ....    ....",
"                    "};
