/* XPM */
static char * watch3_xpm[] = {
"24 24 3 1 12 10",
" 	c None",
".	c #403720",
"X	c #c5b994",
"                        ",
"                        ",
"    ..... ...........   ",
"    .XXX. .XXXXXXXXX.   ",
"    .XXX. .XXXXXXXXX.   ",
"    ..... ...........   ",
"                        ",
"                        ",
"        .... ....       ",
"        .XX. .XX.       ",
"    .....XX...XX.....   ",
"    .XXXXXXXXXXXXXXX.   ",
"    .XXXXXXXXXXXXXXX.   ",
"    .....XX...XX.....   ",
"        .XX. .XX.       ",
"        .XX. .XX.       ",
"    .....XX...XX.....   ",
"    .XXXXXXXXXXXXXXX.   ",
"    .XXXXXXXXXXXXXXX.   ",
"    .....XX...XX.....   ",
"        .XX. .XX.       ",
"        .... ....       ",
"                        ",
"                        "};
